<svg width="1080" height="1080" viewBox="0 0 1080 1080" fill="none" xmlns="http://www.w3.org/2000/svg">
<rect width="1080" height="1080" fill="#202020"/>
<path d="M620.009 460.013H459.013V621.009H620.009V460.013Z" fill="#C9CDD1"/>
<path d="M781.004 247.678V138H297.996V247.678C297.996 276.031 275.031 298.996 246.678 298.996H137V782.004H246.678C275.031 782.004 297.996 804.969 297.996 833.322V943H781.004V833.322C781.004 804.969 803.969 782.004 832.322 782.004H942V298.996H832.322C803.969 298.996 781.004 276.031 781.004 247.678ZM781.004 730.665C781.004 759.018 758.04 781.982 729.687 781.982H349.335C320.982 781.982 298.018 759.018 298.018 730.665V350.313C298.018 321.96 320.982 298.996 349.335 298.996H729.687C758.04 298.996 781.004 321.96 781.004 350.313V730.665Z" fill="#C9CDD1"/>
</svg>
