<svg width="1080" height="1080" viewBox="0 0 1080 1080" fill="none" xmlns="http://www.w3.org/2000/svg">
<rect width="1080" height="1080" fill="#C9CDD1"/>
<path d="M576.01 504.01H504.01V576.01H576.01V504.01Z" fill="#202020"/>
<path d="M648.01 409.05V360H432V409.05C432 421.73 421.73 432 409.05 432H360V648.01H409.05C421.73 648.01 432 658.28 432 670.96V720.01H648.01V670.96C648.01 658.28 658.28 648.01 670.96 648.01H720.01V432H670.96C658.28 432 648.01 421.73 648.01 409.05ZM648.01 625.05C648.01 637.73 637.74 648 625.06 648H454.96C442.28 648 432.01 637.73 432.01 625.05V454.95C432.01 442.27 442.28 432 454.96 432H625.06C637.74 432 648.01 442.27 648.01 454.95V625.05Z" fill="#202020"/>
</svg>
